<?xml version="1.0" encoding="UTF-8" standalone="no"?>
<svg xmlns:rdf="http://www.w3.org/1999/02/22-rdf-syntax-ns#" xmlns="http://www.w3.org/2000/svg" height="128" width="128" version="1.1" xmlns:cc="http://creativecommons.org/ns#" xmlns:dc="http://purl.org/dc/elements/1.1/" viewBox="0 0 128 128.00001">
	<path opacity=".3" d="m 71.784963,63.122568 c 0,0 8.564619,-6.851724 8.564407,-16.349794 0,-5.560405 -4.936525,-14.791755 -16.349369,-14.791613 -11.412987,0 -16.349582,9.234956 -16.34937,14.791613 0,9.498283 8.564407,16.349794 8.564407,16.349794 -9.512425,-7.410055 -26.471957,-2.35113 -26.471745,12.458726 10e-7,7.414014 6.058138,15.570845 15.570492,15.570492 11.412986,0 16.349935,-12.45901 16.349935,-12.45901 0,0 1.449427,14.20026 -7.006721,21.802224 h 18.686003 c -8.456191,-7.597962 -7.006721,-21.802224 -7.006721,-21.802224 0,0 4.936313,12.458515 16.349935,12.45901 9.516245,10e-7 15.570423,-8.160082 15.570492,-15.570492 0,-14.809644 -16.958754,-19.868781 -26.471745,-12.458726 z"/>
</svg>
