<?xml version="1.0" encoding="UTF-8" standalone="no"?>
<svg xmlns:rdf="http://www.w3.org/1999/02/22-rdf-syntax-ns#" xmlns="http://www.w3.org/2000/svg" height="128" width="128" version="1.1" xmlns:cc="http://creativecommons.org/ns#" xmlns:dc="http://purl.org/dc/elements/1.1/" viewBox="0 0 128 128.00001">
	<g transform="translate(0 19.558)">
		<path d="m28.231-10.914c-9.146 9.146-1.1897 19.545-1.1897 19.545s-10.399-7.9562-19.545 1.1897c-6.4015 6.401-8.0793 16.309-0.3167 24.072 10.257 10.257 39.126 2.016 58.195 13.071-11.236-18.862-2.814-47.938-13.071-58.195-7.7626-7.7626-17.67-6.0848-24.072 0.31707z" fill="#df0000"/>
		<path d="m92.231 56.782c-13.084-1.962-23.687-6.649-23.687-6.649s4.6869 10.604 6.649 23.687c1.9569 13.083-0.08233 24.906-0.08233 24.906s11.82-2.0418 24.909-0.07968c13.081 1.9595 23.685 6.6464 23.685 6.6464s-4.6869-10.604-6.6464-23.685c-1.9621-13.089 0.0797-24.909 0.0797-24.909s-11.823 2.0392-24.906 0.08233z" fill="#df0000"/>
		<path d="m20.302 50.388c-9.32 10.621-7.913 49.561-11.957 54.902 5.342-4.04 44.282-2.63 54.906-11.953 7.502-6.595 5.414-14.527 0.858-19.083-4.986-4.88-15.89-2.124-18.621-2.2 1.109-2.41 20.73-12.113 22.279-10.565l-15.62-15.619c1.548 1.548-8.155 21.169-10.565 22.279-0.009-2.449 3.176-12.837-2.202-18.624-4.556-4.551-12.483-6.639-19.078 0.863z"/>
		<path d="m104.4 18.491s10.901 1.2112 17.617-5.5051c3.9318-3.9318 6.9687-13.95-1.1015-22.02-8.0702-8.0702-18.091-5.0308-22.02-1.1015-6.7163 6.7163-5.5051 17.617-5.5051 17.617-1.4866-11.966-17.056-20.381-27.528-9.9087-5.2425 5.2425-6.7265 15.294 0 22.02 8.0702 8.0702 20.371 2.7513 20.371 2.7513s-9.0162 11.066-20.371 10.462l13.213 13.213c-0.60686-11.352 10.462-20.371 10.462-20.371s-5.319 12.3 2.7513 20.371c6.729 6.729 16.78 5.2399 22.02 0 10.472-10.472 2.0577-26.041-9.9087-27.528z"/>
	</g>
</svg>
